<?xml version="1.0"?>
<svg xmlns="http://www.w3.org/2000/svg" version="1" viewBox="0 0 24 24" enable-background="new 0 0 24 24">
    <path d="M 12 3 C 11.184634 3 10.466753 3.4835959 10.15625 4.1875 L 4 4.90625 L 4.21875 6.90625 L 20 5.09375 L 19.78125 3.09375 L 13.59375 3.8125 C 13.228395 3.3217416 12.655259 3 12 3 z M 4 8 L 4 10 L 5 10 L 5 12.84375 C 4.7086277 12.719584 4.5054884 12.523459 4.34375 12.34375 C 4.0415875 12.008014 3.96875 11.71875 3.96875 11.71875 L 2.03125 12.28125 C 2.03125 12.28125 2.2459125 12.991986 2.84375 13.65625 C 3.2966401 14.159461 4.030214 14.656335 5 14.875 L 5 19 C 5 20.1 5.9 21 7 21 L 17 21 C 18.1 21 19 20.1 19 19 L 19 14.875 C 19.969786 14.656335 20.70336 14.159461 21.15625 13.65625 C 21.754088 12.991986 21.96875 12.28125 21.96875 12.28125 L 20.03125 11.71875 C 20.03125 11.71875 19.95841 12.008014 19.65625 12.34375 C 19.494512 12.523459 19.291372 12.719584 19 12.84375 L 19 10 L 20 10 L 20 8 L 4 8 z"/>
</svg>
